<?xml version="1.0" encoding="UTF-8"?>
<svg width="80px" height="16px" viewBox="0 0 80 16" version="1.1" xmlns="http://www.w3.org/2000/svg" xmlns:xlink="http://www.w3.org/1999/xlink">
    <!-- Generator: Sketch 56.3 (81716) - https://sketch.com -->
    <title>logo</title>
    <desc>Created with Sketch.</desc>
    <g id="Page-1" stroke="none" stroke-width="1" fill="none" fill-rule="evenodd">
        <g id="logo" fill="#FFFFFF" fill-rule="nonzero">
            <path d="M12.8921124,1.8313253 C12.8921124,2.1204819 12.8377153,2.4096386 12.7470535,2.6987952 L9.4288305,12.5686747 C9.356301,12.7807229 9.1931097,12.9156627 8.95738894,12.973494 C8.77606528,12.9156627 8.63100635,12.7807229 8.54034451,12.5686747 L3.71713509,1.4650602 C3.64460562,1.2915663 3.53581142,1.1951807 3.37262013,1.1951807 C3.24569356,1.1951807 3.13689937,1.3301205 3.04623753,1.6192771 L3.118767,1.8313253 L8.28649139,13.7060241 C8.37715322,13.9180723 8.43155032,14.1686747 8.43155032,14.4578313 C8.43155032,15.2481928 7.72438803,15.7686747 6.98096102,15.7686747 C6.32819583,15.7686747 5.83862194,15.4216867 5.53037171,14.7084337 L0,1.9084337 C0,1.6578313 0.23572076,1.3879518 0.50770626,1.3879518 C0.81595648,1.3879518 1.05167724,1.5807229 1.21486854,1.946988 L6.58204896,14.3807229 C6.63644606,14.4963855 6.74524025,14.6120482 6.94469628,14.7084337 C7.16228468,14.7084337 7.27107888,14.5927711 7.27107888,14.3421687 C7.27107888,14.2072289 7.25294651,14.1108434 7.23481414,14.0722892 L2.08522212,2.2168675 L1.92203083,1.5036145 C1.92203083,0.6746988 2.59292838,0.0578313 3.37262013,0.0578313 C4.00725295,0.0578313 4.4605621,0.3855422 4.75067996,1.0409639 L8.92112421,10.5638554 C10.8975521,4.7421687 11.8948323,1.773494 11.8948323,1.6771084 C11.8948323,1.4072289 11.7860381,1.2722892 11.586582,1.2722892 C11.4052584,1.2722892 11.2783318,1.4072289 11.18767,1.6578313 L9.1749773,7.7493976 C9.0299184,8.173494 8.81233001,8.3855422 8.54034451,8.3855422 C8.25022665,8.3855422 8.06890299,8.1542169 8.01450589,7.7108434 L8.06890299,7.3638554 L10.099728,1.3493976 C10.3535811,0.5975904 10.8068903,0.2120482 11.4777879,0.2120482 C12.3481414,0.2120482 12.8921124,0.9060241 12.8921124,1.8313253 Z M22.3028105,1.3108434 L27.3073436,15.3831325 C27.3073436,15.6722892 27.1441523,15.8072289 26.7996374,15.8072289 C26.5095195,15.8072289 26.3100635,15.653012 26.2012693,15.3445783 L21.3236627,1.6578313 C21.2330009,1.426506 21.1060743,1.3108434 20.9247507,1.3108434 C20.7796917,1.3108434 20.6708976,1.4457831 20.6165005,1.7156627 C20.6708976,1.7542169 20.6890299,1.8120482 20.6890299,1.9084337 L24.9320036,13.7638554 C25.0045331,13.9759036 25.0407978,14.2072289 25.0407978,14.4578313 C25.0407978,15.3060241 24.3699003,15.7686747 23.5176791,15.7686747 C22.8467815,15.7686747 22.4297371,15.4987952 22.2302811,14.9783133 L20.9247507,11.3156627 L18.2774252,11.3156627 L17.0625567,14.5927711 C16.7543064,15.460241 16.2466002,15.8843373 15.5757026,15.8843373 C14.7960109,15.8843373 14.1613781,15.1325301 14.1613781,14.3036145 L14.306437,13.513253 L18.0961015,2.9301205 C18.2230281,2.5638554 18.3862194,2.3710843 18.5856754,2.3710843 C18.8213962,2.3710843 19.0027199,2.5638554 19.1296464,2.9301205 L20.9972801,8.1156627 C21.0154125,8.173494 21.0335449,8.3084337 21.0335449,8.5012048 C21.0335449,8.9831325 20.7071623,9.3686747 20.2175884,9.3686747 L17.9873073,9.3686747 C17.7153218,9.3686747 17.5521306,9.1951807 17.4614687,8.8481928 C17.4977335,8.4433735 17.7153218,8.2313253 18.0961015,8.2313253 L19.8368087,8.2313253 L18.5494107,4.9156627 L16.7724388,9.8313253 C15.7207616,12.7421687 15.1949229,14.226506 15.1949229,14.3036145 C15.1949229,14.4771084 15.3762466,14.746988 15.5394379,14.746988 C15.7026292,14.746988 15.8476881,14.6120482 15.93835,14.3421687 L17.2076156,10.8337349 C17.3345422,10.4674699 17.6065277,10.2746988 17.9873073,10.2746988 L20.9972801,10.2746988 C21.4687217,10.2746988 21.7951043,10.5445783 21.9945603,11.0650602 L23.2275612,14.5156627 C23.3000907,14.7277108 23.3907525,14.8240964 23.5176791,14.8240964 C23.7533998,14.8240964 23.862194,14.6120482 23.862194,14.1879518 C20.942883,6.053012 19.4741614,1.8698795 19.4741614,1.6578313 C19.4741614,0.8674699 20.1450589,0.1349398 20.8884859,0.1349398 C21.5593835,0.1349398 22.030825,0.5204819 22.3028105,1.3108434 Z M42.774252,1.7927711 C42.774252,2.7373494 42.1033545,3.373494 41.2148685,3.373494 L38.3136899,3.373494 L38.3136899,15.286747 C38.3136899,15.5373494 37.9510426,15.7301205 37.7153218,15.7301205 C37.4070716,15.7301205 37.2620127,15.5566265 37.2620127,15.2096386 L37.2620127,2.9301205 C37.2620127,2.4289157 37.4796011,2.1783133 37.9329102,2.1783133 L41.287398,2.1783133 C41.4505893,2.1783133 41.5412511,2.0626506 41.5412511,1.8313253 C41.5412511,1.5614458 41.4143246,1.426506 41.1786038,1.426506 L36.7905712,1.426506 C36.6092475,1.426506 36.5185857,1.5228916 36.5185857,1.7156627 L36.5185857,14.3807229 C36.5185857,15.3060241 35.8839529,15.8457831 35.0135993,15.8457831 C34.1976428,15.8457831 33.56301,15.2481928 33.56301,14.3807229 C33.56301,5.8216867 33.5448776,1.5228916 33.5086129,1.4650602 C33.417951,1.4457831 33.3272892,1.426506 33.2547597,1.426506 L29.7733454,1.426506 C29.6464189,1.426506 29.555757,1.5421687 29.5013599,1.7542169 C29.555757,2.0433735 29.6645512,2.1783133 29.8096102,2.1783133 L32.9283772,2.1783133 C33.2366274,2.1783133 33.3998187,2.3518072 33.3998187,2.6987952 C33.3998187,3.1228916 33.1822303,3.3349398 32.7289211,3.3349398 L29.8821396,3.3349398 C29.011786,3.3349398 28.2864914,2.6409639 28.2864914,1.7156627 C28.2864914,0.886747 28.8667271,0.2506024 29.6464189,0.2506024 L33.4360834,0.2506024 C34.1795104,0.2506024 34.6690843,0.7903614 34.6690843,1.5807229 L34.6690843,14.2650602 C34.6690843,14.4963855 34.7960109,14.6506024 35.049864,14.7084337 C35.3218495,14.6698795 35.4487761,14.5156627 35.4487761,14.2650602 L35.4487761,1.5807229 C35.4487761,0.8289157 35.9020852,0.2506024 36.5729828,0.2506024 L41.3236627,0.2506024 C42.1940163,0.2506024 42.774252,0.8674699 42.774252,1.7927711 Z M49.2293744,0.713253 L49.2293744,14.4192771 C49.2293744,15.3253012 48.6672711,16 47.8150499,16 C47.0172257,16 46.4007253,15.2674699 46.4007253,14.4192771 L46.4007253,1.5807229 C46.4007253,1.3301205 46.2737987,1.1951807 46.038078,1.1951807 C45.7842248,1.1951807 45.6572983,1.3301205 45.6572983,1.6192771 L45.6572983,15.0939759 C45.6572983,15.5373494 45.4578422,15.7686747 45.0770626,15.7686747 C44.7325476,15.7686747 44.5512239,15.5373494 44.5512239,15.0939759 L44.5512239,1.6192771 C44.5512239,0.6939759 45.149592,0 46.0018132,0 C46.8177697,0 47.4161378,0.6361446 47.4161378,1.5036145 L47.4161378,14.3421687 C47.4161378,14.5542169 47.5430644,14.7084337 47.8150499,14.7855422 C48.068903,14.746988 48.1958296,14.5927711 48.1958296,14.3421687 L48.1958296,0.713253 C48.1958296,0.3277108 48.3771532,0.1349398 48.7398005,0.1349398 C49.0661831,0.1349398 49.2293744,0.3277108 49.2293744,0.713253 Z M66.43699,7.9807229 C66.43699,10.1204819 65.693563,11.9518072 64.2248413,13.4746988 C62.7561197,14.9783133 61.0154125,15.7301205 59.0027199,15.7301205 C56.9900272,15.7301205 55.2311877,14.9783133 53.762466,13.4746988 C52.2937443,11.9518072 51.5684497,10.1204819 51.5684497,7.9807229 C51.5684497,5.8216867 52.2937443,3.9903614 53.7443336,2.486747 C55.2130553,0.9638554 56.9537625,0.2120482 59.0027199,0.2120482 C61.0335449,0.2120482 62.774252,0.9638554 64.2429737,2.486747 C65.7116954,3.9903614 66.43699,5.8216867 66.43699,7.9807229 Z M65.2402539,8.0578313 C65.2402539,6.1879518 64.6237534,4.626506 63.4088849,3.3349398 C62.1940163,2.0433735 60.6890299,1.3879518 58.9301904,1.3879518 C57.1713509,1.3879518 55.6844968,2.0433735 54.4696283,3.3349398 C53.2547597,4.626506 52.6563917,6.1879518 52.6563917,8.0578313 C52.6563917,9.8891566 53.2728921,11.4506024 54.505893,12.7614458 C55.7388939,14.053012 57.2076156,14.7084337 58.9301904,14.7084337 C60.6527652,14.7084337 62.1214869,14.053012 63.3726201,12.7614458 C64.6237534,11.4506024 65.2402539,9.8891566 65.2402539,8.0578313 Z M64.5149592,8.0192771 C64.5149592,9.6578313 63.9709882,11.0457831 62.8649139,12.1831325 C61.7588395,13.3204819 60.4351768,13.8795181 58.8939257,13.8795181 C57.3708069,13.8795181 56.0471442,13.3012048 54.9410698,12.1638554 C53.8349955,11.0072289 53.2910245,9.6192771 53.2910245,8.0192771 C53.2910245,6.3807229 53.8349955,4.9927711 54.9410698,3.8361446 C56.0471442,2.6795181 57.3526745,2.1012048 58.8939257,2.1012048 C60.4533092,2.1012048 61.7769719,2.6795181 62.8649139,3.8168675 C63.9709882,4.9542169 64.5149592,6.3614458 64.5149592,8.0192771 Z M63.3907525,7.9807229 C63.3907525,6.6506024 62.9555757,5.513253 62.0852221,4.6072289 C61.2148685,3.7012048 60.1450589,3.2385542 58.8939257,3.2385542 C57.6790571,3.2385542 56.6092475,3.7012048 55.7207616,4.6457831 C54.8322756,5.5710843 54.3970988,6.6891566 54.3970988,7.9807229 C54.3970988,9.2722892 54.8322756,10.3903614 55.7207616,11.3349398 C56.6092475,12.260241 57.6790571,12.7228916 58.8939257,12.7228916 C60.1087942,12.7228916 61.1604714,12.260241 62.0489574,11.3349398 C62.9374433,10.3903614 63.3907525,9.2722892 63.3907525,7.9807229 Z M62.7198549,8.0192771 C62.7198549,9.1180723 62.3390752,10.0433735 61.5956482,10.7951807 C60.8522212,11.546988 59.9637353,11.9325301 58.9301904,11.9325301 C57.9329102,11.9325301 57.0444243,11.546988 56.2828649,10.7759036 C55.5213055,9.9855422 55.1405258,9.0795181 55.1405258,8.0192771 C55.1405258,6.9204819 55.5213055,5.9951807 56.2647325,5.2240964 C57.0081596,4.453012 57.8966455,4.0674699 58.9301904,4.0674699 C59.9818676,4.0674699 60.8703536,4.453012 61.6137806,5.2240964 C62.3572076,5.9759036 62.7198549,6.9204819 62.7198549,8.0192771 Z M61.6137806,8.0192771 C61.6137806,7.2289157 61.3599275,6.5542169 60.8340888,6.0144578 C60.3082502,5.4554217 59.6736174,5.1855422 58.9301904,5.1855422 C58.1867634,5.1855422 57.5702629,5.4554217 57.0444243,6.0144578 C56.5185857,6.573494 56.2647325,7.2289157 56.2647325,8.0192771 C56.2647325,8.7903614 56.5185857,9.4457831 57.0444243,10.0048193 C57.5702629,10.5638554 58.2048957,10.8337349 58.9301904,10.8337349 C59.6736174,10.8337349 60.2901179,10.5638554 60.8159565,10.0240964 C61.3417951,9.4650602 61.6137806,8.8096386 61.6137806,8.0192771 Z M80,1.7927711 L80,14.746988 C80,15.4795181 79.7280145,15.8457831 79.1840435,15.8457831 C78.5856754,15.8457831 78.1867634,15.5373494 77.9510426,14.9012048 L73.0915684,1.6578313 C73.0009066,1.426506 72.8739801,1.3108434 72.674524,1.3108434 C72.475068,1.3108434 72.3662738,1.4457831 72.3481414,1.7156627 L72.4206709,2.0240964 L76.7361741,13.6289157 C76.8087035,13.8216867 76.8449683,14.0722892 76.8449683,14.3807229 C76.8449683,15.2096386 76.2103354,15.8457831 75.4306437,15.8457831 C74.850408,15.8457831 74.2520399,15.286747 74.0163191,14.6698795 L69.2293744,1.8313253 L69.2293744,14.226506 C69.2293744,14.4771084 69.356301,14.5927711 69.5920218,14.5927711 C69.8458749,14.5927711 69.9728015,14.4578313 69.9728015,14.1879518 L69.9728015,7.1903614 C69.9728015,6.746988 70.1359927,6.5349398 70.4805077,6.5349398 C70.8612874,6.5349398 71.0426111,6.746988 71.0426111,7.1518072 L71.0426111,14.4192771 C71.0426111,15.2481928 70.3717135,15.8457831 69.5920218,15.8457831 C68.8485947,15.8457831 68.2502267,15.2481928 68.2502267,14.4578313 L68.2502267,1.3108434 C68.2502267,1.0024096 68.3046238,0.7325301 68.4315503,0.4819277 C68.5947416,0.1927711 68.7941976,0.0385542 69.0661831,0.0385542 C69.555757,0.0385542 69.9184044,0.3662651 70.1541251,1.0409639 L75.0861287,14.3807229 C75.1405258,14.5156627 75.2311877,14.5927711 75.394379,14.5927711 C75.6119674,14.5927711 75.7207616,14.4771084 75.7207616,14.226506 C75.7207616,14.0915663 75.7026292,13.9759036 75.6844968,13.9180723 C72.7107888,6.0144578 71.2239347,1.8506024 71.2239347,1.426506 C71.2239347,0.5783133 71.731641,0.0385542 72.5294651,0.0385542 C73.3091568,0.0385542 73.8712602,0.4819277 74.1976428,1.3879518 L77.1713509,9.5228916 L77.1713509,1.9084337 C77.1713509,0.9831325 77.7515866,0.2120482 78.6219402,0.2120482 C79.4741614,0.2120482 80,0.8674699 80,1.7927711 Z M77.3164098,10.0819277 L78.9845875,14.4578313 L78.9845875,1.7927711 C78.9845875,1.5421687 78.8576609,1.426506 78.6219402,1.426506 C78.3862194,1.426506 78.2592928,1.5614458 78.2592928,1.8313253 L78.2592928,9.5614458 C78.2592928,9.8891566 78.1142339,10.0433735 77.8059837,10.0433735 C77.6971895,10.0433735 77.5521306,10.0240964 77.3526745,10.0048193 L77.3164098,10.0819277 Z" id="VATION"></path>
        </g>
    </g>
</svg>